<svg width="24" height="24" viewBox="0 0 24 24" fill="none" xmlns="http://www.w3.org/2000/svg">
<path d="M9 9.99976C9 10.1324 9.05268 10.2595 9.14645 10.3533C9.24021 10.4471 9.36739 10.4998 9.5 10.4998C9.63261 10.4998 9.75979 10.4471 9.85355 10.3533C9.94732 10.2595 10 10.1324 10 9.99976V8.99976C10 8.86715 9.94732 8.73997 9.85355 8.6462C9.75979 8.55243 9.63261 8.49976 9.5 8.49976C9.36739 8.49976 9.24021 8.55243 9.14645 8.6462C9.05268 8.73997 9 8.86715 9 8.99976V9.99976ZM9 9.99976C9 11.3258 9.52678 12.5976 10.4645 13.5353C11.4021 14.473 12.6739 14.9998 14 14.9998M14 14.9998H15C15.1326 14.9998 15.2598 14.9471 15.3536 14.8533C15.4473 14.7595 15.5 14.6324 15.5 14.4998C15.5 14.3671 15.4473 14.24 15.3536 14.1462C15.2598 14.0524 15.1326 13.9998 15 13.9998H14C13.8674 13.9998 13.7402 14.0524 13.6464 14.1462C13.5527 14.24 13.5 14.3671 13.5 14.4998C13.5 14.6324 13.5527 14.7595 13.6464 14.8533C13.7402 14.9471 13.8674 14.9998 14 14.9998ZM3 20.9997L4.65 17.1997C3.38766 15.4078 2.82267 13.2168 3.06104 11.0378C3.29942 8.8589 4.32479 6.84186 5.94471 5.36525C7.56463 3.88863 9.66775 3.05394 11.8594 3.01782C14.051 2.98171 16.1805 3.74665 17.8482 5.1691C19.5159 6.59154 20.6071 8.5737 20.9172 10.7436C21.2272 12.9135 20.7347 15.1219 19.5321 16.9545C18.3295 18.7871 16.4994 20.1177 14.3854 20.6968C12.2713 21.2759 10.0186 21.0636 8.05 20.0997L3 20.9997Z" stroke="white" stroke-width="1.5" stroke-linecap="round" stroke-linejoin="round"/>
</svg>
