<svg width="95" height="167" viewBox="0 0 95 167" fill="none" xmlns="http://www.w3.org/2000/svg">
<g clip-path="url(#clip0_31_762)">
<path d="M15.98 8.0175C16 7.9575 30.61 0.1875 48.03 0.1875C65.45 0.1875 79.54 7.6475 79.54 7.6475V61.5575C79.54 79.1075 65.31 89.7175 47.76 89.7175C30.21 89.7175 15.99 75.4875 15.99 57.9375V8.0175H15.98Z" fill="#709DC5"/>
<path d="M30.24 55.4676C30.24 53.9876 31.44 52.7876 32.92 52.7876C34.4 52.7876 35.59 53.9876 35.59 55.4676C35.59 56.9476 34.39 58.1476 32.92 58.1476C31.45 58.1476 30.24 56.9476 30.24 55.4676Z" fill="white"/>
<path d="M38.02 55.4676C38.02 53.9876 39.22 52.7876 40.7 52.7876C42.18 52.7876 43.37 53.9876 43.37 55.4676C43.37 56.9476 42.17 58.1476 40.7 58.1476C39.23 58.1476 38.02 56.9476 38.02 55.4676Z" fill="white"/>
<path d="M45.7999 55.4676C45.7999 53.9876 46.9999 52.7876 48.4699 52.7876C49.9399 52.7876 51.1499 53.9876 51.1499 55.4676C51.1499 56.9476 49.9499 58.1476 48.4699 58.1476C46.9899 58.1476 45.7999 56.9476 45.7999 55.4676Z" fill="white"/>
<path d="M53.58 55.4676C53.58 53.9876 54.78 52.7876 56.25 52.7876C57.72 52.7876 58.92 53.9876 58.92 55.4676C58.92 56.9476 57.72 58.1476 56.25 58.1476C54.78 58.1476 53.58 56.9476 53.58 55.4676Z" fill="white"/>
<path d="M60.99 55.4676C60.99 53.9876 62.19 52.7876 63.66 52.7876C65.13 52.7876 66.34 53.9876 66.34 55.4676C66.34 56.9476 65.14 58.1476 63.66 58.1476C62.18 58.1476 60.99 56.9476 60.99 55.4676Z" fill="white"/>
<path d="M30.1899 64.0474C30.1899 62.5674 31.3899 61.3674 32.8599 61.3674C34.3299 61.3674 35.5399 62.5674 35.5399 64.0474C35.5399 65.5274 34.3399 66.7274 32.8599 66.7274C31.3799 66.7274 30.1899 65.5274 30.1899 64.0474Z" fill="white"/>
<path d="M37.97 64.0474C37.97 62.5674 39.17 61.3674 40.64 61.3674C42.11 61.3674 43.32 62.5674 43.32 64.0474C43.32 65.5274 42.12 66.7274 40.64 66.7274C39.16 66.7274 37.97 65.5274 37.97 64.0474Z" fill="white"/>
<path d="M45.75 64.0474C45.75 62.5674 46.95 61.3674 48.42 61.3674C49.89 61.3674 51.1 62.5674 51.1 64.0474C51.1 65.5274 49.9 66.7274 48.42 66.7274C46.94 66.7274 45.75 65.5274 45.75 64.0474Z" fill="white"/>
<path d="M53.53 64.0474C53.53 62.5674 54.73 61.3674 56.2 61.3674C57.67 61.3674 58.88 62.5674 58.88 64.0474C58.88 65.5274 57.68 66.7274 56.2 66.7274C54.72 66.7274 53.53 65.5274 53.53 64.0474Z" fill="white"/>
<path d="M60.9399 64.0474C60.9399 62.5674 62.1399 61.3674 63.6199 61.3674C65.0999 61.3674 66.2899 62.5674 66.2899 64.0474C66.2899 65.5274 65.0899 66.7274 63.6199 66.7274C62.1499 66.7274 60.9399 65.5274 60.9399 64.0474Z" fill="white"/>
<path d="M38.16 72.6375C38.16 71.1575 39.36 69.9675 40.84 69.9675C42.32 69.9675 43.52 71.1675 43.52 72.6375C43.52 74.1075 42.32 75.3175 40.84 75.3175C39.36 75.3175 38.16 74.1175 38.16 72.6375Z" fill="white"/>
<path d="M45.9399 72.6375C45.9399 71.1575 47.1399 69.9675 48.6099 69.9675C50.0799 69.9675 51.2899 71.1675 51.2899 72.6375C51.2899 74.1075 50.0899 75.3175 48.6099 75.3175C47.1299 75.3175 45.9399 74.1175 45.9399 72.6375Z" fill="white"/>
<path d="M53.72 72.6375C53.72 71.1575 54.92 69.9675 56.39 69.9675C57.86 69.9675 59.06 71.1675 59.06 72.6375C59.06 74.1075 57.86 75.3175 56.39 75.3175C54.92 75.3175 53.72 74.1175 53.72 72.6375Z" fill="white"/>
<path fill-rule="evenodd" clip-rule="evenodd" d="M40.29 22.7576V16.4976H43.89V19.5076H46.21V14.7476H50.47V19.5076H52.79V16.4976H56.09V22.7576H40.29Z" fill="white"/>
<path d="M55.9699 25.1375L59.3699 41.3675H36.9299L40.3299 25.1375H55.9699Z" fill="white"/>
<path d="M45.0999 32.7775C45.0999 31.0875 46.4699 29.7075 48.1699 29.7075C49.8699 29.7075 51.2299 31.0775 51.2299 32.7775V41.5775H45.0699V32.8375L45.0999 32.7775Z" fill="#709DC5"/>
<path fill-rule="evenodd" clip-rule="evenodd" d="M7.22997 138.557C7.22997 139.127 6.88997 140.317 5.85997 140.317C4.82997 140.317 4.42997 139.147 4.42997 137.877V135.387C4.42997 134.117 4.74997 133.007 5.77997 133.007C6.94997 133.007 7.22997 134.157 7.22997 134.957V138.547V138.557ZM11 141.427V127.337C11 126.867 10.96 126.637 10.23 126.637H8.06997C7.72997 126.637 7.55997 126.977 7.55997 127.427V132.167C6.80997 131.107 5.98997 130.637 4.26997 130.637C2.12997 130.637 0.719971 132.567 0.719971 136.817C0.719971 141.067 2.26997 142.707 4.12997 142.707C5.84997 142.707 6.86997 142.137 7.55997 141.267V141.797C7.55997 142.477 7.87997 142.437 8.32997 142.437H10.39C10.99 142.437 10.99 141.987 10.99 141.437L11 141.427Z" fill="#709DC5"/>
<path fill-rule="evenodd" clip-rule="evenodd" d="M19.7 135.017C19.7 135.317 19.68 135.507 19.48 135.507H16.75C16.47 135.507 16.49 135.297 16.49 134.997C16.51 134.017 16.93 132.877 18.17 132.877C19.41 132.877 19.68 133.897 19.7 135.027V135.017ZM23.17 136.657V134.997C23.17 132.387 21.6 130.637 18.25 130.637C14.62 130.637 12.98 132.567 12.98 136.797C12.98 140.447 14.45 142.727 18.81 142.727C20 142.727 22.04 142.517 22.34 142.427C22.86 142.297 23.01 142.107 23.01 141.617V140.047C23.01 139.767 22.79 139.627 22.43 139.707C22.09 139.767 20.83 140.047 19.18 140.047C17.4 140.047 16.42 139.177 16.42 137.667H22.11C23.12 137.667 23.18 137.367 23.18 136.647L23.17 136.657Z" fill="#709DC5"/>
<path fill-rule="evenodd" clip-rule="evenodd" d="M35.84 127.487C35.56 127.207 34.61 126.637 32.11 126.637C26.72 126.637 25.35 129.227 25.35 132.327V137.597C25.35 140.527 27.21 142.697 31.43 142.697C33.71 142.697 35.35 142.207 35.73 141.907C35.95 141.697 35.31 138.997 34.98 139.077C34.5 139.227 33.57 139.737 31.75 139.737C30.14 139.737 29.23 138.927 29.23 137.037V132.687C29.23 130.287 30.6 129.687 32.46 129.687C33.93 129.687 34.52 129.967 35 130.107C35.28 130.187 36.05 127.667 35.85 127.477L35.84 127.487Z" fill="#709DC5"/>
<path fill-rule="evenodd" clip-rule="evenodd" d="M43.92 137.837C43.92 139.087 43.5 140.327 42.41 140.327C41.32 140.327 40.77 139.327 40.77 137.947V135.337C40.77 133.977 41.27 133.037 42.34 133.037C43.61 133.037 43.91 134.117 43.91 135.287V137.837H43.92ZM47.45 136.797C47.45 132.317 45.65 130.637 42.46 130.637C38.85 130.637 37.03 132.247 37.03 136.817C37.03 141.387 38.64 142.707 42.4 142.707C45.59 142.707 47.44 140.667 47.44 136.797H47.45Z" fill="#709DC5"/>
<path fill-rule="evenodd" clip-rule="evenodd" d="M55.5999 132.928V131.888C55.5999 131.488 55.4799 131.098 55.0399 131.098H53.4599V128.948C53.4599 128.418 53.3999 128.158 52.7699 128.268L51.0499 128.608C50.6499 128.668 50.2599 128.858 50.2599 129.328V131.088H49.4099C48.9299 131.088 48.8099 131.258 48.8099 131.748V132.878C48.8099 133.278 48.8899 133.558 49.2699 133.558H50.0999V139.738C50.1199 141.078 50.8699 142.688 53.0299 142.688C53.8999 142.688 54.9899 142.478 55.2899 142.348C55.4899 142.238 55.2499 139.948 54.9899 139.988C54.7499 140.048 54.6099 140.048 54.3599 140.048C53.8799 140.048 53.5499 139.768 53.5499 139.218V133.588H55.0599C55.5599 133.588 55.5899 133.358 55.5899 132.908L55.5999 132.928Z" fill="#709DC5"/>
<path fill-rule="evenodd" clip-rule="evenodd" d="M60.8 141.557V131.697C60.8 131.227 60.76 130.997 60.07 130.997H57.91C57.51 130.997 57.37 131.277 57.37 131.697V141.557C57.37 142.107 57.43 142.427 58.02 142.427H60.22C60.81 142.427 60.81 142.107 60.81 141.557H60.8ZM60.8 128.747V127.747C60.8 127.277 60.82 126.877 60.21 126.877H58.05C57.52 126.877 57.36 126.987 57.36 127.557V128.687C57.36 129.327 57.5 129.427 58.03 129.427H60.21C60.67 129.427 60.8 129.217 60.8 128.747Z" fill="#709DC5"/>
<path fill-rule="evenodd" clip-rule="evenodd" d="M66.4899 141.557V127.347C66.4899 126.877 66.4499 126.647 65.7599 126.647H63.5999C63.1999 126.647 63.0499 126.877 63.0499 127.247V141.717C63.0499 142.337 63.1299 142.437 63.7199 142.437H65.8999C66.4899 142.437 66.4899 142.117 66.4899 141.567V141.557Z" fill="#709DC5"/>
<path fill-rule="evenodd" clip-rule="evenodd" d="M72.18 141.557V127.347C72.18 126.877 72.14 126.647 71.45 126.647H69.29C68.89 126.647 68.74 126.877 68.74 127.247V141.717C68.74 142.337 68.82 142.437 69.41 142.437H71.59C72.18 142.437 72.18 142.117 72.18 141.567V141.557Z" fill="#709DC5"/>
<path fill-rule="evenodd" clip-rule="evenodd" d="M80.66 138.457C80.66 139.047 80.3 140.327 79.29 140.327C78.28 140.327 77.86 139.157 77.86 137.887V135.397C77.86 133.957 78.18 133.017 79.21 133.017C80.38 133.017 80.66 134.267 80.66 135.017V138.457ZM84.43 141.427V131.697C84.43 131.227 84.39 130.997 83.66 130.997H81.5C81.16 130.997 81 131.337 81 131.697V132.207C80.42 131.167 79.51 130.637 77.71 130.637C75.57 130.637 74.16 132.567 74.16 136.817C74.16 141.067 75.75 142.707 77.59 142.707C79.33 142.707 80.48 141.947 81 141.117V141.797C81 142.367 81.34 142.437 81.77 142.437H83.83C84.43 142.437 84.43 141.987 84.43 141.437V141.427Z" fill="#709DC5"/>
<path fill-rule="evenodd" clip-rule="evenodd" d="M94.88 139.217C94.88 137.097 93.14 135.877 91.53 135.027C90.72 134.607 90.12 134.217 90.12 133.817C90.12 133.247 90.58 132.927 91.49 132.927C92.2 132.927 93.31 133.157 93.67 133.227C94.11 133.267 94.5 131.107 94.19 130.977C93.91 130.847 93.12 130.617 91.3 130.617C88.92 130.617 86.54 131.617 86.54 133.957C86.54 136.127 88.27 136.957 89.69 137.657C90.52 138.077 91.2 138.567 91.2 139.127C91.2 139.867 90.6 140.127 89.5 140.127C87.89 140.127 87.14 139.807 86.71 139.677C86.21 139.527 86.27 141.927 86.47 142.037C86.89 142.267 88.45 142.717 90.51 142.717C92.39 142.717 94.87 142.227 94.87 139.237L94.88 139.217Z" fill="#709DC5"/>
<path fill-rule="evenodd" clip-rule="evenodd" d="M10.15 120.697V118.747C10.15 118.447 10.15 118.257 9.64995 118.257H5.48995C5.16995 118.257 5.01995 118.197 5.01995 117.857V106.347C5.01995 105.797 4.79995 105.647 4.20995 105.647H1.78995C1.32995 105.647 1.19995 105.797 1.19995 106.197V120.447C1.19995 120.977 1.19995 121.187 1.71995 121.187H9.38995C9.86995 121.187 10.14 121.147 10.14 120.697H10.15Z" fill="#709DC5"/>
<path fill-rule="evenodd" clip-rule="evenodd" d="M18.01 117.207C18.01 117.797 17.65 119.077 16.64 119.077C15.63 119.077 15.21 117.907 15.21 116.637V114.147C15.21 112.707 15.53 111.767 16.56 111.767C17.73 111.767 18.01 113.017 18.01 113.767V117.207ZM21.78 120.177V110.447C21.78 109.977 21.74 109.747 21.01 109.747H18.85C18.51 109.747 18.34 110.087 18.34 110.447V110.957C17.76 109.917 16.85 109.387 15.05 109.387C12.91 109.387 11.5 111.317 11.5 115.567C11.5 119.817 13.09 121.447 14.93 121.447C16.67 121.447 17.82 120.687 18.34 119.857V120.537C18.34 121.107 18.68 121.177 19.11 121.177H21.17C21.77 121.177 21.77 120.727 21.77 120.177H21.78Z" fill="#709DC5"/>
<path fill-rule="evenodd" clip-rule="evenodd" d="M32.24 117.977C32.24 115.857 30.51 114.637 28.89 113.787C28.08 113.367 27.48 112.977 27.48 112.577C27.48 112.007 27.94 111.687 28.85 111.687C29.56 111.687 30.6699 111.917 31.0299 111.987C31.4799 112.027 31.86 109.867 31.55 109.737C31.2699 109.607 30.48 109.377 28.66 109.377C26.28 109.377 23.9 110.377 23.9 112.707C23.9 114.877 25.64 115.707 27.05 116.407C27.88 116.837 28.56 117.317 28.56 117.877C28.56 118.617 27.9499 118.877 26.8699 118.877C25.2499 118.877 24.51 118.557 24.08 118.427C23.58 118.277 23.64 120.677 23.84 120.787C24.26 121.017 25.82 121.467 27.88 121.467C29.76 121.467 32.24 120.977 32.24 117.987V117.977Z" fill="#709DC5"/>
<path fill-rule="evenodd" clip-rule="evenodd" d="M45.03 108.137V106.077C45.03 105.677 44.75 105.627 44.26 105.627H34.01C33.5 105.627 33.24 105.687 33.24 106.097V108.137C33.24 108.387 33.26 108.587 33.74 108.587H36.69C37.05 108.587 37.15 108.647 37.15 108.987V120.477C37.15 121.097 37.31 121.177 37.96 121.177H40.18C40.77 121.177 40.97 121.027 40.97 120.477V108.987C40.97 108.647 41.07 108.587 41.43 108.587H44.52C45 108.587 45.02 108.397 45.02 108.137H45.03Z" fill="#709DC5"/>
<path fill-rule="evenodd" clip-rule="evenodd" d="M53.0599 116.597C53.0599 117.847 52.6399 119.087 51.5499 119.087C50.4599 119.087 49.9199 118.087 49.9199 116.707V114.097C49.9199 112.737 50.4199 111.807 51.4899 111.807C52.7599 111.807 53.0599 112.887 53.0599 114.057V116.607V116.597ZM56.5899 115.557C56.5899 111.077 54.7899 109.397 51.6099 109.397C47.9999 109.397 46.1799 111.007 46.1799 115.577C46.1799 120.147 47.7899 121.457 51.5499 121.457C54.7399 121.457 56.5999 119.417 56.5999 115.547L56.5899 115.557Z" fill="#709DC5"/>
<path fill-rule="evenodd" clip-rule="evenodd" d="M65.5299 109.838C65.5299 109.538 65.2899 109.538 65.1299 109.538C63.7999 109.538 62.8499 110.068 62.0199 111.028V110.308C62.0199 109.858 61.6999 109.758 61.2699 109.758H59.1099C58.7099 109.758 58.5699 110.098 58.5699 110.518V120.268C58.5699 120.818 58.7499 121.178 59.3799 121.178H61.4199C61.9999 121.178 61.9999 120.728 61.9999 120.178V114.508C61.9999 113.868 62.6299 113.168 63.5099 112.718C63.9699 112.468 64.5599 112.338 65.0999 112.338C65.3599 112.338 65.4599 112.168 65.4799 111.908L65.5199 109.828L65.5299 109.838Z" fill="#709DC5"/>
<path fill-rule="evenodd" clip-rule="evenodd" d="M73.99 109.838C73.99 109.538 73.75 109.538 73.59 109.538C72.26 109.538 71.31 110.068 70.48 111.028V110.308C70.48 109.858 70.16 109.758 69.73 109.758H67.57C67.17 109.758 67.03 110.098 67.03 110.518V120.268C67.03 120.818 67.21 121.178 67.84 121.178H69.88C70.46 121.178 70.46 120.728 70.46 120.178V114.508C70.46 113.868 71.09 113.168 71.97 112.718C72.43 112.468 73.02 112.338 73.57 112.338C73.83 112.338 73.93 112.168 73.95 111.908L73.99 109.828V109.838Z" fill="#709DC5"/>
<path fill-rule="evenodd" clip-rule="evenodd" d="M81.31 113.767C81.31 114.067 81.29 114.257 81.09 114.257H78.37C78.09 114.257 78.11 114.047 78.11 113.747C78.13 112.767 78.55 111.627 79.78 111.627C81.01 111.627 81.29 112.647 81.31 113.777V113.767ZM84.78 115.407V113.747C84.78 111.137 83.2 109.397 79.86 109.397C76.23 109.397 74.59 111.327 74.59 115.557C74.59 119.207 76.06 121.487 80.42 121.487C81.61 121.487 83.65 121.277 83.95 121.187C84.47 121.057 84.62 120.867 84.62 120.377V118.807C84.62 118.527 84.4 118.377 84.03 118.467C83.69 118.527 82.44 118.807 80.78 118.807C79 118.807 78.01 117.937 78.01 116.427H83.7C84.71 116.427 84.77 116.127 84.77 115.407H84.78Z" fill="#709DC5"/>
<path fill-rule="evenodd" clip-rule="evenodd" d="M95 117.977C95 115.857 93.26 114.637 91.65 113.787C90.84 113.367 90.24 112.977 90.24 112.577C90.24 112.007 90.7 111.687 91.61 111.687C92.32 111.687 93.43 111.917 93.79 111.987C94.23 112.027 94.62 109.867 94.31 109.737C94.03 109.607 93.24 109.377 91.42 109.377C89.04 109.377 86.66 110.377 86.66 112.707C86.66 114.877 88.39 115.707 89.81 116.407C90.64 116.837 91.32 117.317 91.32 117.877C91.32 118.617 90.72 118.877 89.63 118.877C88.01 118.877 87.27 118.557 86.84 118.427C86.34 118.277 86.4 120.677 86.6 120.787C87.02 121.017 88.58 121.467 90.64 121.467C92.52 121.467 95 120.977 95 117.987V117.977Z" fill="#709DC5"/>
<path fill-rule="evenodd" clip-rule="evenodd" d="M6.84001 161.228C6.84001 161.698 5.83001 163.108 4.42001 163.108C3.01001 163.108 2.08001 161.928 2.08001 159.718V158.818C2.08001 156.078 3.01001 155.228 4.40001 155.228C6.06001 155.228 6.84001 156.968 6.84001 157.838V161.228ZM7.74002 163.118V155.168C7.74002 154.838 7.74001 154.718 7.41001 154.718H7.03001C6.90001 154.718 6.83001 154.798 6.83001 154.998V156.058C6.37001 155.178 5.47001 154.518 4.09001 154.518C2.05001 154.518 1.14001 156.648 1.14001 159.218C1.14001 162.518 2.52001 163.798 4.24001 163.798C5.38001 163.798 6.58001 163.098 6.85001 162.318V163.168C6.85001 163.598 6.87002 163.648 7.03001 163.648H7.46001C7.69001 163.648 7.74002 163.548 7.74002 163.118Z" fill="#709DC5"/>
<path fill-rule="evenodd" clip-rule="evenodd" d="M16.42 155.068C16.54 154.768 16.54 154.718 16.32 154.718H15.85C15.72 154.718 15.63 154.898 15.6 154.988L12.99 162.508L10.38 154.988C10.33 154.838 10.31 154.718 10.11 154.718H9.71003C9.54003 154.718 9.40003 154.748 9.48003 154.988L12.45 163.768L11.51 166.688C11.44 166.888 11.58 166.968 11.63 166.968H12C12.23 166.968 12.3 166.988 12.41 166.688L16.41 155.068H16.42Z" fill="#709DC5"/>
<path fill-rule="evenodd" clip-rule="evenodd" d="M24.27 163.198V155.248C24.27 154.818 24.22 154.718 23.99 154.718H23.56C23.39 154.718 23.38 154.768 23.38 155.198V160.638C23.38 161.688 22.52 163.098 20.92 163.098C19.44 163.098 18.89 162.188 18.89 161.038V155.258C18.89 154.848 18.87 154.708 18.67 154.708H18.22C18 154.708 17.99 154.728 17.99 155.118V160.978C17.99 162.988 19.2 163.788 20.61 163.788C21.77 163.788 22.6 163.438 23.35 162.478C23.35 163.238 23.32 163.638 23.55 163.638H23.93C24.26 163.638 24.26 163.518 24.26 163.188L24.27 163.198Z" fill="#709DC5"/>
<path fill-rule="evenodd" clip-rule="evenodd" d="M32.78 162.968V157.378C32.78 155.258 31.68 154.518 30.16 154.518C28.83 154.518 27.97 155.018 27.42 155.918C27.42 155.158 27.45 154.718 27.22 154.718H26.84C26.51 154.718 26.51 154.838 26.51 155.168V163.118C26.51 163.548 26.56 163.648 26.79 163.648H27.22C27.39 163.648 27.4 163.598 27.4 163.168V157.728C27.4 156.678 28.18 155.258 29.84 155.258C31.32 155.258 31.88 156.188 31.88 157.328V163.108C31.88 163.518 31.9 163.658 32.1 163.658H32.55C32.77 163.658 32.78 163.578 32.78 162.978V162.968Z" fill="#709DC5"/>
<path fill-rule="evenodd" clip-rule="evenodd" d="M38.81 155.598V155.118C38.81 155.018 38.78 154.988 38.5 154.988H36.64V153.048C36.64 152.768 36.49 152.688 36.29 152.718L36.01 152.798C35.81 152.828 35.73 152.828 35.73 153.078V154.988H34.83C34.61 154.988 34.6 155.008 34.6 155.168V155.548C34.6 155.678 34.65 155.728 34.75 155.728H35.73V161.748C35.73 162.898 36.16 163.788 37.36 163.788C37.89 163.788 38.36 163.758 38.64 163.658C38.77 163.608 38.69 162.948 38.56 162.978C38.09 163.098 37.9 163.108 37.43 163.108C36.93 163.108 36.65 162.688 36.65 162.028V155.718H38.46C38.76 155.718 38.83 155.668 38.83 155.588L38.81 155.598Z" fill="#709DC5"/>
<path fill-rule="evenodd" clip-rule="evenodd" d="M45.81 161.228C45.81 161.698 44.8 163.108 43.39 163.108C41.98 163.108 41.05 161.928 41.05 159.718V158.818C41.05 156.078 41.98 155.228 43.37 155.228C45.03 155.228 45.81 156.968 45.81 157.838V161.228ZM46.71 163.118V155.168C46.71 154.838 46.71 154.718 46.38 154.718H46C45.87 154.718 45.8 154.798 45.8 154.998V156.058C45.33 155.178 44.44 154.518 43.06 154.518C41.02 154.518 40.11 156.648 40.11 159.218C40.11 162.518 41.49 163.798 43.21 163.798C44.36 163.798 45.55 163.098 45.82 162.318V163.168C45.82 163.598 45.84 163.648 46 163.648H46.43C46.66 163.648 46.71 163.548 46.71 163.118Z" fill="#709DC5"/>
<path fill-rule="evenodd" clip-rule="evenodd" d="M59.5599 162.968V157.378C59.5599 155.258 58.5599 154.518 57.0399 154.518C55.9099 154.518 55.0299 155.148 54.4799 156.078C54.0199 154.928 53.3499 154.518 52.1899 154.518C51.0299 154.518 50.3799 154.848 49.8499 155.728C49.8499 154.968 49.8799 154.718 49.6499 154.718H49.2699C48.9399 154.718 48.9399 154.838 48.9399 155.168V163.118C48.9399 163.548 48.9899 163.648 49.2199 163.648H49.6499C49.8199 163.648 49.8299 163.598 49.8299 163.168V157.728C49.8299 156.678 50.3899 155.238 52.0599 155.238C53.5399 155.238 53.8199 156.188 53.8199 157.328V163.108C53.8199 163.518 53.8399 163.658 54.0399 163.658H54.4899C54.7099 163.658 54.7199 163.578 54.7199 162.978V157.448C54.9499 156.388 55.4999 155.238 56.9099 155.238C58.3199 155.238 58.6699 156.188 58.6699 157.328V163.108C58.6699 163.518 58.6899 163.658 58.8899 163.658H59.3399C59.5599 163.658 59.5699 163.578 59.5699 162.978L59.5599 162.968Z" fill="#709DC5"/>
<path fill-rule="evenodd" clip-rule="evenodd" d="M62.6899 163.168V155.188C62.6899 154.818 62.6899 154.728 62.4899 154.728H62.1299C61.7999 154.728 61.7999 154.848 61.7999 155.178V163.178C61.7999 163.608 61.8299 163.658 61.9699 163.658H62.5199C62.6899 163.658 62.6999 163.608 62.6999 163.178L62.6899 163.168ZM62.6899 152.308V151.958C62.6899 151.578 62.7199 151.488 62.4899 151.488H62.1299C61.7999 151.488 61.7999 151.608 61.7999 151.938V152.248C61.7999 152.678 61.8499 152.778 62.0799 152.778H62.5099C62.6799 152.778 62.6899 152.728 62.6899 152.298V152.308Z" fill="#709DC5"/>
<path fill-rule="evenodd" clip-rule="evenodd" d="M70.5 158.538C70.5 158.768 70.48 158.808 70.32 158.808H65.71C65.48 158.808 65.49 158.758 65.49 158.528C65.52 156.608 66.44 155.228 68.06 155.228C69.68 155.228 70.45 156.228 70.5 158.548V158.538ZM71.33 158.848V158.138C71.33 155.528 69.94 154.518 68.04 154.518C65.95 154.518 64.64 156.078 64.64 159.268C64.64 162.968 66.33 163.798 68.51 163.798C69.49 163.798 70.32 163.548 70.54 163.468C70.99 163.298 71.09 163.298 71.09 163.088V162.638C71.09 162.488 70.94 162.438 70.64 162.588C70.32 162.738 69.76 163.048 68.4 163.048C66.74 163.048 65.51 162.098 65.51 159.458H70.84C71.25 159.458 71.34 159.238 71.34 158.848H71.33Z" fill="#709DC5"/>
<path fill-rule="evenodd" clip-rule="evenodd" d="M79.55 162.968V157.378C79.55 155.258 78.46 154.518 76.93 154.518C75.6 154.518 74.74 155.018 74.19 155.918C74.19 155.158 74.22 154.718 73.99 154.718H73.61C73.28 154.718 73.28 154.838 73.28 155.168V163.118C73.28 163.548 73.33 163.648 73.56 163.648H73.99C74.16 163.648 74.17 163.598 74.17 163.168V157.728C74.17 156.678 74.95 155.258 76.61 155.258C78.09 155.258 78.65 156.188 78.65 157.328V163.108C78.65 163.518 78.67 163.658 78.87 163.658H79.32C79.54 163.658 79.55 163.578 79.55 162.978V162.968Z" fill="#709DC5"/>
<path fill-rule="evenodd" clip-rule="evenodd" d="M85.58 155.598V155.118C85.58 155.018 85.55 154.988 85.26 154.988H83.4V153.048C83.4 152.768 83.25 152.688 83.05 152.718L82.77 152.798C82.57 152.828 82.49 152.828 82.49 153.078V154.988H81.59C81.37 154.988 81.36 155.008 81.36 155.168V155.548C81.36 155.678 81.41 155.728 81.51 155.728H82.49V161.748C82.49 162.898 82.92 163.788 84.12 163.788C84.65 163.788 85.12 163.758 85.4 163.658C85.53 163.608 85.45 162.948 85.32 162.978C84.86 163.098 84.66 163.108 84.19 163.108C83.69 163.108 83.41 162.688 83.41 162.028V155.718H85.22C85.52 155.718 85.59 155.668 85.59 155.588L85.58 155.598Z" fill="#709DC5"/>
<path fill-rule="evenodd" clip-rule="evenodd" d="M93.45 159.578C93.45 161.838 92.3 163.078 90.69 163.078C89.21 163.078 87.82 162.378 87.82 159.878V158.648C87.82 156.128 89.18 155.248 90.71 155.248C92.65 155.248 93.45 156.558 93.45 158.518V159.578ZM94.38 159.178C94.38 155.878 93.17 154.518 90.73 154.518C88.69 154.518 86.88 155.828 86.88 159.218C86.88 162.858 88.52 163.798 90.63 163.798C92.74 163.798 94.38 162.158 94.38 159.178Z" fill="#709DC5"/>
</g>
<defs>
<clipPath id="clip0_31_762">
<rect width="94.27" height="166.78" fill="white" transform="translate(0.72998 0.1875)"/>
</clipPath>
</defs>
</svg>
