<svg width="40" height="40" viewBox="0 0 40 40" fill="none" xmlns="http://www.w3.org/2000/svg">
<circle cx="20" cy="20" r="20" fill="#F97316"/>
<path d="M17 17.9998C17 18.1324 17.0527 18.2595 17.1464 18.3533C17.2402 18.4471 17.3674 18.4998 17.5 18.4998C17.6326 18.4998 17.7598 18.4471 17.8536 18.3533C17.9473 18.2595 18 18.1324 18 17.9998V16.9998C18 16.8671 17.9473 16.74 17.8536 16.6462C17.7598 16.5524 17.6326 16.4998 17.5 16.4998C17.3674 16.4998 17.2402 16.5524 17.1464 16.6462C17.0527 16.74 17 16.8671 17 16.9998V17.9998ZM17 17.9998C17 19.3258 17.5268 20.5976 18.4645 21.5353C19.4021 22.473 20.6739 22.9998 22 22.9998M22 22.9998H23C23.1326 22.9998 23.2598 22.9471 23.3536 22.8533C23.4473 22.7595 23.5 22.6324 23.5 22.4998C23.5 22.3671 23.4473 22.24 23.3536 22.1462C23.2598 22.0524 23.1326 21.9998 23 21.9998H22C21.8674 21.9998 21.7402 22.0524 21.6464 22.1462C21.5527 22.24 21.5 22.3671 21.5 22.4998C21.5 22.6324 21.5527 22.7595 21.6464 22.8533C21.7402 22.9471 21.8674 22.9998 22 22.9998ZM11 28.9997L12.65 25.1997C11.3877 23.4078 10.8227 21.2168 11.061 19.0378C11.2994 16.8589 12.3248 14.8419 13.9447 13.3652C15.5646 11.8886 17.6677 11.0539 19.8594 11.0178C22.051 10.9817 24.1805 11.7467 25.8482 13.1691C27.5159 14.5915 28.6071 16.5737 28.9172 18.7436C29.2272 20.9135 28.7347 23.1219 27.5321 24.9545C26.3295 26.7871 24.4994 28.1177 22.3854 28.6968C20.2713 29.2759 18.0186 29.0636 16.05 28.0997L11 28.9997Z" stroke="white" stroke-width="1.5" stroke-linecap="round" stroke-linejoin="round"/>
</svg>
