<svg width="24" height="24" viewBox="0 0 24 24" fill="none" xmlns="http://www.w3.org/2000/svg">
<path d="M6 4H5C4.46957 4 3.96086 4.21071 3.58579 4.58579C3.21071 4.96086 3 5.46957 3 6V9.5C3 10.9587 3.57946 12.3576 4.61091 13.3891C5.64236 14.4205 7.04131 15 8.5 15C9.95869 15 11.3576 14.4205 12.3891 13.3891C13.4205 12.3576 14 10.9587 14 9.5V6C14 5.46957 13.7893 4.96086 13.4142 4.58579C13.0391 4.21071 12.5304 4 12 4H11M8 15C8 15.7879 8.15519 16.5681 8.45672 17.2961C8.75825 18.0241 9.20021 18.6855 9.75736 19.2426C10.3145 19.7998 10.9759 20.2417 11.7039 20.5433C12.4319 20.8448 13.2121 21 14 21C14.7879 21 15.5681 20.8448 16.2961 20.5433C17.0241 20.2417 17.6855 19.7998 18.2426 19.2426C18.7998 18.6855 19.2417 18.0241 19.5433 17.2961C19.8448 16.5681 20 15.7879 20 15V12M20 12C21.1046 12 22 11.1046 22 10C22 8.89543 21.1046 8 20 8C18.8954 8 18 8.89543 18 10C18 11.1046 18.8954 12 20 12ZM11 3V5M6 3V5" stroke="#F97316" stroke-width="1.5" stroke-linecap="round" stroke-linejoin="round"/>
</svg>
