<svg width="24" height="24" viewBox="0 0 24 24" fill="none" xmlns="http://www.w3.org/2000/svg">
<path d="M15.9996 5.00006L18.9996 8.00006L16.9996 9.00006L20.9996 13.0001L17.9996 14.0001L21.9996 18.0001H12.9996M14.9996 21.0001V18.0001M7.99963 13.0001L5.99963 11.0001M7.99963 12.0001L9.99963 10.0001M7.99963 21.0001V8.00006M5.82362 15.9951C5.38609 15.9694 4.95949 15.8483 4.57383 15.6401C4.18816 15.4319 3.8528 15.1417 3.59133 14.7899C3.32986 14.4382 3.14863 14.0334 3.0604 13.6041C2.97217 13.1748 2.97907 12.7314 3.08062 12.3051C2.71771 12.0034 2.43113 11.6203 2.24421 11.187C2.05729 10.7537 1.97531 10.2823 2.00494 9.81134C2.03456 9.34035 2.17496 8.88301 2.4147 8.47652C2.65445 8.07003 2.98677 7.72588 3.38462 7.47206C3.03599 6.85272 2.91857 6.12971 3.05328 5.43187C3.18799 4.73403 3.56608 4.10668 4.12019 3.6616C4.67429 3.21651 5.36842 2.98261 6.07889 3.00156C6.78936 3.0205 7.47003 3.29108 7.99962 3.76506C8.52933 3.29183 9.20978 3.0219 9.91985 3.00331C10.6299 2.98473 11.3236 3.21871 11.8773 3.66359C12.431 4.10848 12.8089 4.73541 12.9438 5.43281C13.0786 6.13022 12.9616 6.85284 12.6136 7.47206C13.0117 7.72565 13.3443 8.06968 13.5843 8.47613C13.8242 8.88259 13.9648 9.33997 13.9945 9.81104C14.0243 10.2821 13.9423 10.7535 13.7553 11.1869C13.5684 11.6203 13.2817 12.0034 12.9186 12.3051C13.0236 12.7459 13.0274 13.2047 12.9296 13.6472C12.8319 14.0896 12.6352 14.5042 12.3543 14.8597C12.0734 15.2153 11.7156 15.5026 11.3078 15.7001C10.9 15.8976 10.4527 16.0002 9.99962 16.0001H5.99962L5.82362 15.9951Z" stroke="#F97316" stroke-width="1.5" stroke-linecap="round" stroke-linejoin="round"/>
</svg>
